<svg xmlns="http://www.w3.org/2000/svg" style="display:none"><symbol id="vk" viewbox="0 0 512 512"><path d="M545.5 400.3c-.7-1.4-1.3-2.6-2-3.6-9.4-17.1-27.6-38.1-54.4-63l-.6-.6-.3-.3-.3-.3h-.3a329.5 329.5 0 0 1-23-23.4c-6-7.6-7.3-15.3-4-23.2 2.2-5.9 10.8-18.3 25.6-37.4l18.6-24.2c32.9-43.8 47.2-71.8 42.8-84l-1.7-2.8c-1.2-1.7-4.1-3.3-8.9-4.7a45 45 0 0 0-18.2-.7l-82.3.5c-1.3-.4-3.2-.4-5.7.2l-3.7.8-1.4.8-1.2.8a19.6 19.6 0 0 0-6 8 466.2 466.2 0 0 1-50 95c-5.8 8.6-10.8 15-14.8 19-4 4.2-7.6 7.4-10.8 10-3.2 2.4-5.7 3.4-7.4 3l-4.9-1a19 19 0 0 1-6.4-7c-1.6-3-2.7-6.7-3.3-11.2a122.8 122.8 0 0 1-.8-25.3c.2-5.9.2-9.9.2-12a4096.8 4096.8 0 0 1 1.1-43.7c.3-5 .4-10.1.4-15.7s-.4-9.8-1-13c-.7-3-1.7-6.1-3-9-1.4-3-3.3-5.3-5.9-7a33 33 0 0 0-9.5-3.8 190 190 0 0 0-38.6-3.7c-35.4-.4-58.1 1.9-68.2 6.8-4 2.1-7.6 5-10.9 8.6-3.4 4.2-3.9 6.5-1.4 6.9 11.4 1.7 19.5 5.8 24.3 12.2l1.7 3.5c1.3 2.4 2.6 6.8 4 13.1 1.3 6.3 2.2 13.2 2.5 20.8 1 14 1 25.8 0 35.7-1 10-1.8 17.6-2.7 23.1a46.3 46.3 0 0 1-7.3 19.7 5 5 0 0 1-1.4 1.5c-2.4 1-5 1.4-7.7 1.4s-5.9-1.3-9.7-4a68.5 68.5 0 0 1-11.8-11 147 147 0 0 1-13.9-19.5 341.3 341.3 0 0 1-16-29.7l-4.5-8.3a712.2 712.2 0 0 1-24.9-52.8c-1.5-4-3.8-7-6.8-9.2l-1.5-.8c-1-.8-2.4-1.6-4.5-2.5-2.1-.8-4.3-1.4-6.6-1.8l-78.2.6c-8 0-13.4 1.8-16.3 5.4l-1.1 1.7c-.6 1-.9 2.5-.9 4.6 0 2 .6 4.6 1.7 7.7A942.2 942.2 0 0 0 39 229a711.3 711.3 0 0 0 93.5 138l7.1 6.9c4.6 4.5 11.3 10 20.1 16.4 8.9 6.4 18.7 12.7 29.4 18.8a159.5 159.5 0 0 0 37.6 15.2c14.3 3.9 28.2 5.4 41.7 4.7h32.8c6.7-.6 11.7-2.7 15.1-6.3l1.2-1.4a29 29 0 0 0 3.1-13.1 94 94 0 0 1 1.9-22.2c1.4-6.5 3-11.5 4.8-14.8a36.5 36.5 0 0 1 11-12.6l2.3-1c4.6-1.5 10 0 16.1 4.4 6.2 4.5 12 10 17.5 16.6 5.4 6.6 11.9 14 19.5 22.1 7.6 8.2 14.3 14.3 20 18.3l5.7 3.4c3.8 2.3 8.8 4.4 14.9 6.3a32 32 0 0 0 16 1.4l73-1.1c7.3 0 12.9-1.2 16.9-3.6 4-2.4 6.3-5 7.1-7.8.8-2.9.8-6.1.2-9.7-.7-3.6-1.4-6.2-2-7.6z"/></symbol><symbol id="youtube" viewbox="0 0 512 512"><path d="M490.2 114c-13.8-24.8-29-29.3-59.6-31-30.7-2.1-107.8-3-174.5-3-67 0-144 .9-174.7 3-30.6 1.7-45.7 6.2-59.7 31C7.4 138.5 0 181 0 255.8v.2c0 74.8 7.4 117.6 21.7 142 14 24.7 29 29.2 59.7 31.3C112 430.9 189.2 432 256 432c66.7 0 143.8-1 174.5-2.8 30.7-2.1 45.8-6.6 59.7-31.3 14.4-24.4 21.7-67.2 21.7-141.7v-.2c0-75-7.3-117.4-21.8-142zM192 352V160l160 96-160 96z"/></symbol></svg>